<svg width="1058" height="557" viewBox="0 0 1058 557" fill="none" xmlns="http://www.w3.org/2000/svg">
<rect width="1058" height="557" fill="#E5E5E5"/>
<g id="undraw_web_development_w2vv 1" clip-path="url(#clip0)">
<g id="Background">
<path id="Vector" d="M936.119 245.65L835.994 293.038L924.609 226.776C910.206 204.295 894.027 183.005 876.225 163.107L441.994 271.038L834.227 121.414C816.303 105.6 797.269 91.0913 777.269 78L115.603 184.577C45.3507 272.427 7.05409 381.552 7 494.038H1002.99C1002.95 406.8 979.881 321.118 936.119 245.65Z" fill="#F2F2F2"/>
<path id="Vector_2" d="M716.117 50.1954C648.184 17.0619 573.576 -0.107014 497.994 9.00385e-06C344.164 9.00385e-06 206.632 69.7527 115.283 179.349C271.71 145.074 544.061 85.7432 716.117 50.1954Z" fill="#F2F2F2"/>
</g>
<path id="Vector_3" d="M995.994 495C995.994 510.464 852.277 557 674.994 557C497.71 557 353.994 510.464 353.994 495C353.994 479.536 497.71 501 674.994 501C852.277 501 995.994 479.536 995.994 495Z" fill="#3F3D56"/>
<path id="Vector_4" opacity="0.1" d="M995.994 495C995.994 510.464 852.277 557 674.994 557C497.71 557 353.994 510.464 353.994 495C353.994 479.536 497.71 501 674.994 501C852.277 501 995.994 479.536 995.994 495Z" fill="black"/>
<path id="Vector_5" d="M484.994 494H5.99365V217H484.994V494ZM7.99365 492H482.994V219H7.99365V492Z" fill="#2F2E41"/>
<path id="Rectangle 1" d="M77.354 239.004L128.746 238.877L152.695 238.817L483 238V255.569V260.589V493H8V456.858L9.49685 444.811L12.4905 421.219L16.4821 397.626L21.9706 373.531L28.4569 349.437L35.4422 328.354L42.9265 309.28L50.4107 290.707L58.8929 272.636L77.354 239.004Z" fill="#F2F2F2"/>
<path id="Vector 2" d="M439.5 272.5L482.5 255V261.5L439.5 272.5Z" fill="#E5E5E5"/>
<path id="Vector_6" d="M674.994 523C852.277 523 995.994 510.464 995.994 495C995.994 479.536 852.277 467 674.994 467C497.71 467 353.994 479.536 353.994 495C353.994 510.464 497.71 523 674.994 523Z" fill="#3F3D56"/>
<path id="Vector_7" d="M585.641 267.126C585.641 267.126 598.552 287.603 593.941 293.148C589.33 298.692 628.534 298.831 628.534 298.831C628.534 298.831 622.645 269.043 624.379 262.187L585.641 267.126Z" fill="#FFB8B8"/>
<path id="Vector_8" opacity="0.1" d="M585.641 267.126C585.641 267.126 598.552 287.603 593.941 293.148C589.33 298.692 628.534 298.831 628.534 298.831C628.534 298.831 622.645 269.043 624.379 262.187L585.641 267.126Z" fill="black"/>
<path id="Vector_9" d="M606.274 274.547C628.633 274.547 646.759 256.422 646.759 234.063C646.759 211.704 628.633 193.579 606.274 193.579C583.915 193.579 565.79 211.704 565.79 234.063C565.79 256.422 583.915 274.547 606.274 274.547Z" fill="#B4A732"/>
<path id="Vector_10" d="M701.494 453.5V477.5L725.494 472.5L723.494 455.5L701.494 453.5Z" fill="#FFB8B8"/>
<path id="Vector_11" d="M634.494 409.5C634.494 409.5 684.494 351.5 700.494 354.5C716.494 357.5 723.494 375.5 723.494 375.5L732.494 464.5C732.494 464.5 700.494 467.5 700.494 464.5C700.494 461.5 694.494 397.5 694.494 397.5C694.494 397.5 647.494 501.5 622.494 432.5L634.494 409.5Z" fill="#2F2E41"/>
<path id="Vector_12" d="M553.494 448.5C553.494 448.5 554.494 498.5 584.494 501.5C614.494 504.5 647.494 481.5 647.494 481.5L701.494 455.63C701.494 455.63 765.494 489.5 784.494 480.5C784.494 480.5 804.494 459.5 791.494 453.5C778.494 447.5 790.494 453.5 790.494 453.5L713.494 413.5C713.494 413.5 698.494 409.5 672.494 420.5C646.494 431.5 611.494 436.5 611.494 436.5L553.494 448.5Z" fill="#2F2E41"/>
<path id="Vector_13" d="M603.494 277.5C620.062 277.5 633.494 264.069 633.494 247.5C633.494 230.931 620.062 217.5 603.494 217.5C586.925 217.5 573.494 230.931 573.494 247.5C573.494 264.069 586.925 277.5 603.494 277.5Z" fill="#FFB8B8"/>
<path id="Vector_14" d="M646.494 331.5L644.494 373.5C644.494 373.5 645.494 428.5 636.494 432.5C631.944 434.52 622.804 438.58 614.354 443.02C608.014 446.34 602.064 449.86 598.744 452.89C597.863 453.639 597.104 454.519 596.494 455.5C592.494 462.5 566.494 461.5 560.494 456.5C554.494 451.5 558.494 462.5 553.494 464.5C548.654 466.44 541.944 450.58 546.054 426.9C546.184 426.11 546.334 425.31 546.494 424.5C551.084 401.55 543.874 346.58 544.984 325.34C545.048 323.717 545.219 322.101 545.494 320.5C548.494 304.5 586.774 271.94 593.934 285.81C602.754 302.93 623.014 287.29 626.494 279.5C646.494 278.5 653.494 302.5 653.494 302.5L646.494 331.5Z" fill="#3F3D56"/>
<path id="Vector_15" d="M727.494 468.5C727.494 468.5 711.494 474.5 706.494 473.5C701.494 472.5 696.494 476.5 696.494 482.5C696.494 488.5 690.494 502.5 699.494 503.5C708.494 504.5 745.494 502.5 753.494 505.5C753.494 505.5 789.494 506.5 786.494 491.5C783.494 476.5 768.494 477.5 768.494 477.5C768.494 477.5 727.494 475.5 727.494 468.5Z" fill="#2F2E41"/>
<g id="Foot Group">
<path id="Vector_16" d="M786.494 457.5L853.494 468.5L836.494 493.5C836.494 493.5 789.494 477.5 777.494 477.5C765.494 477.5 786.494 457.5 786.494 457.5Z" fill="#FFB8B8"/>
<path id="Vector_17" d="M844.494 471.5C844.494 471.5 846.494 465.5 849.494 465.5C852.494 465.5 876.494 469.5 879.494 468.5C882.494 467.5 917.494 465.5 911.494 482.5C905.494 499.5 885.494 501.5 885.494 501.5C885.494 501.5 849.494 497.5 844.494 498.5C839.494 499.5 821.494 498.5 824.494 493.5C827.494 488.5 846.494 479.5 844.494 471.5Z" fill="#2F2E41"/>
</g>
<path id="Vector_18" d="M753.468 327.863L758.954 350.494C759.015 350.746 759.006 351.01 758.926 351.258L734.04 429.028C733.941 429.336 733.74 429.601 733.47 429.778C733.2 429.956 732.877 430.035 732.555 430.004C732.233 429.972 731.932 429.831 731.702 429.604C731.471 429.377 731.326 429.078 731.289 428.757L727.847 398.46C727.824 398.259 727.844 398.055 727.907 397.863L750.75 327.758C750.845 327.466 751.034 327.213 751.286 327.037C751.538 326.861 751.841 326.772 752.149 326.784C752.456 326.796 752.751 326.908 752.989 327.103C753.227 327.297 753.395 327.564 753.468 327.863Z" fill="#D0CDE1"/>
<path id="Vector_19" d="M751.45 329.775L756.515 349.191L734.565 420.104L729.5 398.155L751.45 329.775Z" fill="#F2F2F2"/>
<path id="Vector_20" d="M640.859 435.3C641.703 437.833 728.656 434.456 729.5 433.612C730.236 432.554 730.859 431.423 731.357 430.235C732.151 428.546 732.877 426.858 732.877 426.858L729.5 399.523L643.391 396.467C643.391 396.467 641.239 419.632 640.8 430.235C640.65 431.921 640.67 433.618 640.859 435.3Z" fill="#D0CDE1"/>
<path id="Vector_21" opacity="0.1" d="M718.526 403.22L720.214 426.858H682.225V403.22H718.526Z" fill="black"/>
<path id="Vector_22" opacity="0.1" d="M669.562 410.818L669.789 410.773L668.718 420.949H647.612V410.818H669.562Z" fill="black"/>
<path id="Vector_23" opacity="0.1" d="M640.859 435.3C641.703 437.833 728.656 434.456 729.5 433.612C730.236 432.554 730.859 431.423 731.357 430.235H640.8C640.65 431.921 640.67 433.618 640.859 435.3Z" fill="black"/>
<path id="Top hair" d="M627.406 162C624.347 166.369 619.812 169.486 614.637 170.778C605.708 173.169 614.564 186.587 614.564 186.587C614.564 186.587 611.344 181.708 615.989 176.54C620.634 171.373 628.109 167.84 627.406 162Z" fill="#B4A732"/>
<path id="Vector_24" d="M612.982 201.088C619.213 201.088 624.264 196.037 624.264 189.806C624.264 183.574 619.213 178.523 612.982 178.523C606.751 178.523 601.699 183.574 601.699 189.806C601.699 196.037 606.751 201.088 612.982 201.088Z" fill="#B4A732"/>
<path id="Right side hair" d="M609.589 202.087C609.589 202.087 598.062 221.26 571.257 228.438C544.452 235.616 571.038 275.896 571.038 275.896C571.038 275.896 561.37 261.249 575.314 245.737C589.259 230.225 611.699 219.62 609.589 202.087Z" fill="#B4A732"/>
<path id="Left side hair" d="M610.504 200.922C610.504 200.922 621.578 227.258 633.735 229.747C645.893 232.237 644.971 273.851 625.958 280.091C625.958 280.091 639.822 255.695 627.972 239.334C616.122 222.973 608.636 210.04 610.504 200.922Z" fill="#B4A732"/>
<path id="Vector_25" d="M627.387 199.262C618.189 195.783 602.874 194.019 594.995 195.225L596.075 187.335C603.65 191.25 618.895 193.089 628.467 191.372L627.387 199.262Z" fill="#794C74"/>
<path id="Vector_26" opacity="0.1" d="M614.354 443.02C611.884 447.69 608.984 452.54 608.494 454.5C608.164 455.83 604.504 455.06 598.744 452.89C587.194 448.52 567.174 438.51 548.494 428.5C547.633 428.043 546.816 427.508 546.054 426.9C546.184 426.11 546.334 425.31 546.494 424.5C551.084 401.55 543.874 346.58 544.984 325.34L553.494 322.5L570.494 338.5V406.5C570.494 406.5 614.494 430.5 617.494 432.5C619.024 433.52 616.914 438.17 614.354 443.02Z" fill="black"/>
<path id="Vector_27" d="M651.494 388.5L678.494 402.5C678.494 402.5 694.494 385.5 704.494 398.5C714.494 411.5 675.494 415.5 675.494 415.5C675.494 415.5 641.494 407.5 640.494 396.5C639.494 385.5 651.494 388.5 651.494 388.5Z" fill="#FFB8B8"/>
<path id="Vector_28" d="M606.494 425.5L622.494 429.5C622.494 429.5 640.494 407.5 659.494 415.5C678.494 423.5 635.494 439.5 635.494 439.5C635.494 439.5 612.494 451.5 603.494 441.5C594.494 431.5 606.494 425.5 606.494 425.5Z" fill="#FFB8B8"/>
<path id="Vector_29" d="M641.494 293.5C642.494 294.5 653.494 302.5 653.494 302.5C653.494 302.5 656.494 340.5 652.494 348.5C648.494 356.5 645.494 356.5 648.494 360.5C651.494 364.5 655.494 361.5 651.494 368.5C647.494 375.5 643.494 374.5 646.494 377.5C649.494 380.5 648.494 381.5 648.494 381.5L660.494 391.5C660.494 391.5 653.131 403.226 643.812 402.363C634.494 401.5 626.494 356.5 626.494 356.5L641.494 293.5Z" fill="#3F3D56"/>
<path id="Vector_30" d="M553.494 317.5L544.494 320.5C544.494 320.5 520.494 408.5 548.494 423.5C576.494 438.5 607.494 453.5 608.494 449.5C609.494 445.5 620.494 429.5 617.494 427.5C614.494 425.5 570.494 401.5 570.494 401.5V333.5L553.494 317.5Z" fill="#3F3D56"/>
<path id="Vector_31" opacity="0.1" d="M566.994 354L564.994 402L617.994 427L568.994 402L566.994 354Z" fill="black"/>
<path id="Dark flower" d="M1013.09 461.643C992.939 473.527 985.006 497.417 985.006 497.417C985.006 497.417 1009.75 502.038 1029.91 490.154C1050.06 478.27 1057.99 454.38 1057.99 454.38C1057.99 454.38 1033.25 449.759 1013.09 461.643Z" fill="#3F3D56"/>
<path id="Coloured flower" d="M1020.16 469.011C1008.87 489.507 985.223 498.139 985.223 498.139C985.223 498.139 979.877 473.541 991.164 453.045C1002.45 432.55 1026.1 423.917 1026.1 423.917C1026.1 423.917 1031.44 448.516 1020.16 469.011Z" fill="#84A9AC"/>
<path id="left button" d="M21.9937 232C24.2028 232 25.9937 230.209 25.9937 228C25.9937 225.791 24.2028 224 21.9937 224C19.7845 224 17.9937 225.791 17.9937 228C17.9937 230.209 19.7845 232 21.9937 232Z" fill="#84A9AC"/>
<path id="middle button" d="M32.9937 232C35.2028 232 36.9937 230.209 36.9937 228C36.9937 225.791 35.2028 224 32.9937 224C30.7845 224 28.9937 225.791 28.9937 228C28.9937 230.209 30.7845 232 32.9937 232Z" fill="#84A9AC"/>
<path id="rightbutton" d="M43.9937 232C46.2028 232 47.9937 230.209 47.9937 228C47.9937 225.791 46.2028 224 43.9937 224C41.7845 224 39.9937 225.791 39.9937 228C39.9937 230.209 41.7845 232 43.9937 232Z" fill="#84A9AC"/>
<path id="Vector_32" opacity="0.3" d="M136.994 378.873H78.9937V384.873H136.994V378.873Z" fill="#84A9AC"/>
<path id="Vector_33" opacity="0.3" d="M133.859 391.873H78.9937V397.873H133.859V391.873Z" fill="#84A9AC"/>
<path id="Vector_34" opacity="0.3" d="M118.967 404.873H78.9937V410.873H118.967V404.873Z" fill="#84A9AC"/>
<g id="Middle browser group" opacity="0.3">
<path id="Vector_35" opacity="0.3" d="M271.994 378.873H213.994V384.873H271.994V378.873Z" fill="#84A9AC"/>
<path id="Vector_36" opacity="0.3" d="M268.859 391.873H213.994V397.873H268.859V391.873Z" fill="#84A9AC"/>
<path id="Vector_37" opacity="0.3" d="M253.967 404.873H213.994V410.873H253.967V404.873Z" fill="#84A9AC"/>
<path id="Vector_38" opacity="0.3" d="M271.994 378.873H213.994V384.873H271.994V378.873Z" fill="#84A9AC"/>
<path id="Vector_39" opacity="0.3" d="M268.859 391.873H213.994V397.873H268.859V391.873Z" fill="#84A9AC"/>
<path id="Vector_40" opacity="0.3" d="M253.967 404.873H213.994V410.873H253.967V404.873Z" fill="#84A9AC"/>
</g>
<path id="Top right browser loader" opacity="0.3" d="M411.994 378.873H353.994V384.873H411.994V378.873Z" fill="#84A9AC"/>
<path id="Middle right browser loader" opacity="0.3" d="M408.859 391.873H353.994V397.873H408.859V391.873Z" fill="#84A9AC"/>
<path id="Bottom right browser loader" opacity="0.3" d="M393.967 404.873H353.994V410.873H393.967V404.873Z" fill="#84A9AC"/>
<path id="Vector_41" opacity="0.3" d="M144.994 300.873H70.9937V366.873H144.994V300.873Z" fill="#84A9AC"/>
<path id="Vector_42" d="M279.994 300.873H205.994V366.873H279.994V300.873Z" fill="#3F3D56"/>
<path id="Vector_43" d="M419.994 300.873H345.994V366.873H419.994V300.873Z" fill="#3F3D56"/>
<path id="Vector_44" d="M233.352 366.595L232.376 366.576C232.397 365.495 233.007 340.015 243.038 332.972L243.599 333.771C233.972 340.53 233.357 366.335 233.352 366.595Z" fill="#84A9AC"/>
<path id="Vector_45" d="M248.2 332.65C250.896 332.65 253.081 330.464 253.081 327.768C253.081 325.073 250.896 322.887 248.2 322.887C245.504 322.887 243.318 325.073 243.318 327.768C243.318 330.464 245.504 332.65 248.2 332.65Z" fill="#84A9AC"/>
<path id="Vector_46" d="M247.213 345.004C244.674 345.802 241.97 345.919 239.371 345.343C241.021 343.242 243.243 341.664 245.77 340.797C248.296 339.93 251.02 339.813 253.611 340.458C251.913 342.508 249.707 344.075 247.213 345.004Z" fill="#84A9AC"/>
<path id="Vector_47" d="M373.352 366.595L372.376 366.576C372.397 365.495 373.007 340.015 383.038 332.972L383.599 333.771C373.972 340.53 373.357 366.335 373.352 366.595Z" fill="#84A9AC"/>
<path id="Vector_48" d="M388.2 332.65C390.896 332.65 393.081 330.464 393.081 327.768C393.081 325.073 390.896 322.887 388.2 322.887C385.504 322.887 383.318 325.073 383.318 327.768C383.318 330.464 385.504 332.65 388.2 332.65Z" fill="#84A9AC"/>
<path id="Vector_49" d="M387.213 345.004C384.674 345.802 381.97 345.919 379.371 345.343C381.021 343.242 383.243 341.664 385.77 340.797C388.296 339.93 391.02 339.813 393.611 340.458C391.913 342.508 389.707 344.075 387.213 345.004Z" fill="#84A9AC"/>
<path id="Vector_50" d="M483.994 237.065H6.99365V239.065H483.994V237.065Z" fill="#2F2E41"/>
<path id="Vector 1" d="M483 237V219H159.2H90.276L78 237H344.157H483Z" fill="#E5E5E5"/>
</g>
<defs>
<clipPath id="clip0">
<rect width="1057.99" height="557" fill="white"/>
</clipPath>
</defs>
</svg>
